<svg width="390.07200051373377" height="261.3579528808594" viewBox="0 0 200 134.0049798686627" class="css-1j8o68f"><defs id="SvgjsDefs2297"></defs><g id="SvgjsG2298" featurekey="symbolFeature-0" transform="matrix(0.9679374236194875,0,0,0.9679374236194875,53.748047303555026,-10.704462445042262)" fill="#fde047"><g xmlns="http://www.w3.org/2000/svg"><path d="M53.1,23.3c-1.6,2.8-1.1,5-0.6,7.1c0.5,2,0.9,3.9-0.5,6.3c-1.4,2.5-3.3,3-5.2,3.6c-2.1,0.6-4.2,1.3-5.8,4.1   c-0.1,0.2-0.1,0.5,0.2,0.7c0.1,0,0.2,0.1,0.2,0.1c0.2,0,0.3-0.1,0.4-0.3c1.4-2.5,3.3-3,5.2-3.6c2.1-0.6,4.2-1.3,5.8-4.1   c1.6-2.8,1.1-5,0.6-7.1c-0.5-2-0.9-3.9,0.5-6.3c1.4-2.5,3.3-3,5.2-3.6c2.1-0.6,4.2-1.3,5.8-4.1c0.1-0.2,0.1-0.5-0.2-0.7   c-0.2-0.1-0.5-0.1-0.7,0.2c-1.4,2.5-3.3,3-5.2,3.6C56.8,19.9,54.7,20.5,53.1,23.3z"></path><path d="M34.7,40.4c-0.3,0.5-0.1,1.1,0.4,1.4c0.2,0.1,0.3,0.1,0.5,0.1c0.3,0,0.7-0.2,0.9-0.5c1.3-2.3,3-2.8,4.9-3.4   c2.1-0.6,4.4-1.3,6.1-4.3c1.7-3,1.1-5.3,0.6-7.4c-0.5-2-0.9-3.7,0.4-6c1.3-2.3,3-2.8,4.9-3.4c2.1-0.6,4.4-1.3,6.1-4.3   c0.3-0.5,0.1-1.1-0.4-1.4c-0.5-0.3-1.1-0.1-1.4,0.4c-1.3,2.3-3,2.8-4.9,3.4c-2.1,0.6-4.4,1.3-6.1,4.3c-1.7,3-1.1,5.3-0.6,7.4   c0.5,2,0.9,3.7-0.4,6c-1.3,2.3-3,2.8-4.9,3.4C38.7,36.7,36.4,37.4,34.7,40.4z"></path><path d="M25,31.6c-1.6,2.8-1.1,5-0.6,7.1c0.5,2,0.9,3.9-0.5,6.3c-1.4,2.5-3.3,3-5.2,3.6c-2.1,0.6-4.2,1.3-5.8,4.1   c-0.1,0.2-0.1,0.5,0.2,0.7c0.1,0,0.2,0.1,0.2,0.1c0.2,0,0.3-0.1,0.4-0.3c1.4-2.5,3.3-3,5.2-3.6c2.1-0.6,4.2-1.3,5.8-4.1   s1.1-5,0.6-7.1c-0.5-2-0.9-3.9,0.5-6.3c1.4-2.5,3.3-3,5.2-3.6c2.1-0.6,4.2-1.3,5.8-4.1c0.1-0.2,0.1-0.5-0.2-0.7   c-0.2-0.1-0.5-0.1-0.7,0.2c-1.4,2.5-3.3,3-5.2,3.6C28.8,28.1,26.6,28.8,25,31.6z"></path><path d="M19.4,42c1.7-3,1.1-5.3,0.6-7.4c-0.5-2-0.9-3.7,0.4-6c1.3-2.3,3-2.8,4.9-3.4c2.1-0.6,4.4-1.3,6.1-4.3   c0.3-0.5,0.1-1.1-0.4-1.4c-0.5-0.3-1.1-0.1-1.4,0.4c-1.3,2.3-3,2.8-4.9,3.4c-2.1,0.6-4.4,1.3-6.1,4.3c-1.7,3-1.1,5.3-0.6,7.4   c0.5,2,0.9,3.7-0.4,6s-3,2.8-4.9,3.4c-2.1,0.6-4.4,1.3-6.1,4.3C6.3,49.1,6.5,49.7,7,50c0.2,0.1,0.3,0.1,0.5,0.1   c0.3,0,0.7-0.2,0.9-0.5c1.3-2.3,3-2.8,4.9-3.4C15.3,45.7,17.7,45,19.4,42z"></path><path d="M88.9,47.1c-0.2-0.1-0.5-0.1-0.7,0.2c-1.4,2.5-3.3,3-5.2,3.6c-2.1,0.6-4.2,1.3-5.8,4.1c-1.6,2.8-1.1,5-0.6,7.1   c0.5,2,0.9,3.9-0.5,6.3c-1.4,2.5-3.3,3-5.2,3.6c-2.1,0.6-4.2,1.3-5.8,4.1c-0.1,0.2-0.1,0.5,0.2,0.7c0.1,0,0.2,0.1,0.2,0.1   c0.2,0,0.3-0.1,0.4-0.3c1.4-2.5,3.3-3,5.2-3.6c2.1-0.6,4.2-1.3,5.8-4.1c1.6-2.8,1.1-5,0.6-7.1c-0.5-2-0.9-3.9,0.5-6.3   c1.4-2.5,3.3-3,5.2-3.6c2.1-0.6,4.2-1.3,5.8-4.1C89.2,47.5,89.1,47.2,88.9,47.1z"></path><path d="M71.5,65.4c1.7-3,1.1-5.3,0.6-7.4c-0.5-2-0.9-3.7,0.4-6c1.3-2.3,3-2.8,4.9-3.4c2.1-0.6,4.4-1.3,6.1-4.3   c0.3-0.5,0.1-1.1-0.4-1.4c-0.5-0.3-1.1-0.1-1.4,0.4c-1.3,2.3-3,2.8-4.9,3.4c-2.1,0.6-4.4,1.3-6.1,4.3c-1.7,3-1.1,5.3-0.6,7.4   c0.5,2,0.9,3.7-0.4,6c-1.3,2.3-3,2.8-4.9,3.4c-2.1,0.6-4.4,1.3-6.1,4.3c-0.3,0.5-0.1,1.1,0.4,1.4c0.2,0.1,0.3,0.1,0.5,0.1   c0.3,0,0.7-0.2,0.9-0.5c1.3-2.3,3-2.8,4.9-3.4C67.5,69.1,69.8,68.4,71.5,65.4z"></path><path d="M35.1,57.2c2.1-0.6,4.2-1.3,5.8-4.1c0.1-0.2,0.1-0.5-0.2-0.7c-0.2-0.1-0.5-0.1-0.7,0.2c-1.4,2.5-3.3,3-5.2,3.6   c-2.1,0.6-4.2,1.3-5.8,4.1c-1.6,2.8-1.1,5-0.6,7.1c0.5,2,0.9,3.9-0.5,6.3c-1.4,2.5-3.3,3-5.2,3.6c-2.1,0.6-4.2,1.3-5.8,4.1   c-0.1,0.2-0.1,0.5,0.2,0.7c0.1,0,0.2,0.1,0.2,0.1c0.2,0,0.3-0.1,0.4-0.3c1.4-2.5,3.3-3,5.2-3.6c2.1-0.6,4.2-1.3,5.8-4.1   c1.6-2.8,1.1-5,0.6-7.1c-0.5-2-0.9-3.9,0.5-6.3C31.3,58.3,33.2,57.8,35.1,57.2z"></path><path d="M23.4,70.7c1.7-3,1.1-5.3,0.6-7.4c-0.5-2-0.9-3.7,0.4-6c1.3-2.3,3-2.8,4.9-3.4c2.1-0.6,4.4-1.3,6.1-4.3   c0.3-0.5,0.1-1.1-0.4-1.4c-0.5-0.3-1.1-0.1-1.4,0.4c-1.3,2.3-3,2.8-4.9,3.4c-2.1,0.6-4.4,1.3-6.1,4.3c-1.7,3-1.1,5.3-0.6,7.4   c0.5,2,0.9,3.7-0.4,6s-3,2.8-4.9,3.4c-2.1,0.6-4.4,1.3-6.1,4.3c-0.3,0.5-0.1,1.1,0.4,1.4c0.2,0.1,0.3,0.1,0.5,0.1   c0.3,0,0.7-0.2,0.9-0.5c1.3-2.3,3-2.8,4.9-3.4C19.3,74.4,21.7,73.7,23.4,70.7z"></path><path d="M62.1,55.2c0.1-0.2,0.1-0.5-0.2-0.7c-0.2-0.1-0.5-0.1-0.7,0.2c-1.4,2.5-3.3,3-5.2,3.6c-2.1,0.6-4.2,1.3-5.8,4.1   c-1.6,2.8-1.1,5-0.6,7.1c0.5,2,0.9,3.9-0.5,6.3c-1.4,2.5-3.3,3-5.2,3.6c-2.1,0.6-4.2,1.3-5.8,4.1c-0.1,0.2-0.1,0.5,0.2,0.7   c0.1,0,0.2,0.1,0.2,0.1c0.2,0,0.3-0.1,0.4-0.3c1.4-2.5,3.3-3,5.2-3.6c2.1-0.6,4.2-1.3,5.8-4.1c1.6-2.8,1.1-5,0.6-7.1   c-0.5-2-0.9-3.9,0.5-6.3c1.4-2.5,3.3-3,5.2-3.6C58.3,58.7,60.5,58,62.1,55.2z"></path><path d="M44.5,72.8c1.7-3,1.1-5.3,0.6-7.4c-0.5-2-0.9-3.7,0.4-6c1.3-2.3,3-2.8,4.9-3.4c2.1-0.6,4.4-1.3,6.1-4.3   c0.3-0.5,0.1-1.1-0.4-1.4c-0.5-0.3-1.1-0.1-1.4,0.4c-1.3,2.3-3,2.8-4.9,3.4c-2.1,0.6-4.4,1.3-6.1,4.3c-1.7,3-1.1,5.3-0.6,7.4   c0.5,2,0.9,3.7-0.4,6c-1.3,2.3-3,2.8-4.9,3.4c-2.1,0.6-4.4,1.3-6.1,4.3c-0.3,0.5-0.1,1.1,0.4,1.4c0.2,0.1,0.3,0.1,0.5,0.1   c0.3,0,0.7-0.2,0.9-0.5c1.3-2.3,3-2.8,4.9-3.4C40.4,76.5,42.8,75.8,44.5,72.8z"></path><path d="M74.2,23.3c-1.6,2.8-1.1,5-0.6,7.1c0.5,2,0.9,3.9-0.5,6.3s-3.3,3-5.2,3.6c-2.1,0.6-4.2,1.3-5.8,4.1   c-0.1,0.2-0.1,0.5,0.2,0.7c0.1,0,0.2,0.1,0.2,0.1c0.2,0,0.3-0.1,0.4-0.3c1.4-2.5,3.3-3,5.2-3.6c2.1-0.6,4.2-1.3,5.8-4.1   c1.6-2.8,1.1-5,0.6-7.1c-0.5-2-0.9-3.9,0.5-6.3c1.4-2.5,3.3-3,5.2-3.6c2.1-0.6,4.2-1.3,5.8-4.1c0.1-0.2,0.1-0.5-0.2-0.7   c-0.2-0.1-0.5-0.1-0.7,0.2c-1.4,2.5-3.3,3-5.2,3.6C78,19.9,75.8,20.5,74.2,23.3z"></path><path d="M61.9,36.1c-2.1,0.6-4.4,1.3-6.1,4.3c-0.3,0.5-0.1,1.1,0.4,1.4c0.2,0.1,0.3,0.1,0.5,0.1c0.3,0,0.7-0.2,0.9-0.5   c1.3-2.3,3-2.8,4.9-3.4c2.1-0.6,4.4-1.3,6.1-4.3c1.7-3,1.1-5.3,0.6-7.4c-0.5-2-0.9-3.7,0.4-6c1.3-2.3,3-2.8,4.9-3.4   c2.1-0.6,4.4-1.3,6.1-4.3c0.3-0.5,0.1-1.1-0.4-1.4c-0.5-0.3-1.1-0.1-1.4,0.4c-1.3,2.3-3,2.8-4.9,3.4c-2.1,0.6-4.4,1.3-6.1,4.3   c-1.7,3-1.1,5.3-0.6,7.4c0.5,2,0.9,3.7-0.4,6C65.5,35,63.8,35.5,61.9,36.1z"></path></g></g><g id="SvgjsG2299" featurekey="nameFeature-0" transform="matrix(1.9164430704321194,0,0,1.9164430704321194,0.07665764971078337,55.73744457978895)" fill="#ffffff"><path d="M34.04 19.28 l-6.2 20.72 l-8.2 0 l-2.72 -12.68 l-2.52 12.68 l-8.2 0 l-6.24 -20.72 l8.4 0 l2.56 13.24 l2.52 -13.24 l7.08 0 l2.64 13.2 l2.44 -13.2 l8.44 0 z M57.36 40 l-8.12 0 l0 -1.6 c-0.32 0.24 -0.72 0.56 -1.52 0.96 c-0.88 0.44 -2.76 1.12 -5.36 1.12 c-0.52 0 -1.92 0 -3.32 -0.52 c-2.68 -1.04 -4.12 -3.36 -4.12 -6.16 c0 -1.12 0.24 -3.6 2.84 -5.36 c1.72 -1.16 3.92 -1.44 5.92 -1.72 c1.16 -0.16 2.4 -0.32 3.56 -0.56 c0.52 -0.12 1.08 -0.24 1.6 -0.4 c0 -0.08 0 -0.64 -0.12 -0.96 c-0.24 -0.84 -0.84 -1.44 -2.68 -1.44 c-0.6 0 -1 0.08 -1.2 0.12 c-1.28 0.32 -1.4 1.4 -1.52 1.84 l-7.72 0.2 c0.08 -0.44 0.2 -0.84 0.28 -1.24 c0.2 -0.8 0.64 -2.24 2.28 -3.52 s4.16 -2.16 8.64 -2.16 c3.24 0 7.64 0.52 9.24 3.88 c0.44 0.92 0.6 1.76 0.6 3.68 l0 11.28 c0 1.52 0.2 1.84 0.72 2.56 z M48.800000000000004 30.36 c-1.04 0.36 -2.08 0.68 -3.12 0.96 c-0.88 0.2 -2.12 0.48 -2.76 1.28 c-0.08 0.12 -0.36 0.48 -0.36 0.96 c0 0.64 0.52 1.6 2.04 1.6 c0.72 0 1.36 -0.24 2 -0.56 c2.32 -1.24 2.2 -3.28 2.2 -4.24 z M80.76 19.28 l-6.88 20.72 l-8.76 0 l-6.92 -20.72 l8.72 0 l2.52 12.8 l2.68 -12.8 l8.64 0 z M104.32000000000001 31.119999999999997 l-14.44 0 s0 0.96 0.2 1.6 c0.28 0.8 1.08 2.32 3.28 2.28 c1.28 0 1.96 -0.44 2.36 -0.8 c0.84 -0.68 1.24 -1.6 1.4 -1.88 l6.76 2.84 c-0.2 0.32 -0.44 0.76 -1 1.4 c-1.44 1.68 -3.08 2.6 -3.8 2.96 c-1 0.48 -3.16 1.32 -6.12 1.32 c-1.72 0 -3.36 -0.24 -4.92 -0.88 c-4.28 -1.76 -6.56 -5.92 -6.56 -10.44 c0 -4.28 1.96 -6.92 3.16 -8.08 c2.96 -2.84 7.08 -3.04 8.24 -3.04 c1.4 0 5.64 0.2 8.64 3.44 c1 1.08 1.76 2.44 2.2 3.84 c0.56 1.8 0.6 3.56 0.6 5.44 z M95.96000000000001 26.759999999999998 c-0.04 -0.24 -0.04 -0.64 -0.2 -1.16 c-0.56 -1.72 -2.08 -1.96 -2.72 -1.96 c-0.64 0.04 -1.04 0.2 -1.28 0.32 c-1.52 0.68 -1.72 2.36 -1.8 2.8 l6 0 z"></path></g></svg>